<?xml version="1.0" encoding="utf-8"?>
<!-- Generator: Adobe Illustrator 19.0.0, SVG Export Plug-In . SVG Version: 6.00 Build 0)  -->
<svg version="1.1" id="Layer_1" xmlns="http://www.w3.org/2000/svg" xmlns:xlink="http://www.w3.org/1999/xlink" x="0px" y="0px"
	 viewBox="0 0 32.9 32.9" style="enable-background:new 0 0 32.9 32.9;" xml:space="preserve">
<style type="text/css">
	.st0{fill:#85C79F;}
</style>
<g id="Icons">
	<g id="Black" transform="translate(-800.000000, -160.000000)">
		<path id="Codepen" class="st0" d="M832.9,171.3C832.9,171.2,832.9,171.2,832.9,171.3c0-0.1,0-0.1,0-0.2c0,0,0,0,0-0.1
			c0,0,0-0.1,0-0.1c0,0,0,0,0-0.1c0,0,0-0.1,0-0.1c0,0,0,0,0-0.1c0,0,0-0.1-0.1-0.1c0,0,0,0,0-0.1c0,0,0-0.1-0.1-0.1
			c0,0,0,0-0.1-0.1c0,0-0.1,0-0.1-0.1c0,0,0,0-0.1,0c0,0,0,0,0,0l-15-10c-0.5-0.3-1.1-0.3-1.6,0l-15,10c0,0,0,0,0,0c0,0,0,0-0.1,0
			c0,0-0.1,0-0.1,0.1c0,0,0,0-0.1,0.1c0,0,0,0.1-0.1,0.1c0,0,0,0,0,0.1c0,0,0,0.1-0.1,0.1c0,0,0,0,0,0.1c0,0,0,0.1,0,0.1
			c0,0,0,0,0,0.1c0,0,0,0.1,0,0.1c0,0,0,0,0,0.1c0,0,0,0.1,0,0.1c0,0,0,0,0,0.1c0,0.1,0,0.1,0,0.2v10c0,0.1,0,0.1,0,0.2
			c0,0,0,0,0,0.1c0,0,0,0.1,0,0.1c0,0,0,0,0,0.1c0,0,0,0.1,0,0.1c0,0,0,0,0,0.1c0,0,0,0.1,0,0.1c0,0,0,0,0,0.1c0,0,0,0.1,0.1,0.1
			c0,0,0,0,0,0.1c0,0,0,0.1,0.1,0.1c0,0,0,0,0.1,0.1c0,0,0.1,0,0.1,0.1c0,0,0,0,0.1,0c0,0,0,0,0,0l15,10c0.2,0.2,0.5,0.2,0.8,0.2
			s0.5-0.1,0.8-0.2l15-10c0,0,0,0,0,0c0,0,0,0,0.1,0c0,0,0.1,0,0.1-0.1c0,0,0,0,0.1-0.1c0,0,0-0.1,0.1-0.1c0,0,0,0,0-0.1
			c0,0,0-0.1,0.1-0.1c0,0,0,0,0-0.1c0,0,0-0.1,0-0.1c0,0,0,0,0-0.1c0,0,0-0.1,0-0.1c0,0,0,0,0-0.1c0,0,0-0.1,0-0.1c0,0,0,0,0-0.1
			c0-0.1,0-0.1,0-0.2v-10C832.9,171.4,832.9,171.3,832.9,171.3L832.9,171.3L832.9,171.3z M817.9,164.1l11.1,7.4l-4.9,3.3l-6.1-4.1
			V164.1L817.9,164.1z M815,164.1v6.6l-6.1,4.1l-5-3.3L815,164.1L815,164.1z M802.8,174.1l3.5,2.4l-3.5,2.4V174.1L802.8,174.1z
			 M815,188.9l-11.1-7.4l5-3.3l6.1,4.1V188.9L815,188.9z M816.5,179.8l-5-3.3l5-3.3l5,3.3L816.5,179.8L816.5,179.8z M817.9,188.9
			v-6.6l6.1-4.1l4.9,3.3L817.9,188.9L817.9,188.9z M830.1,178.8l-3.5-2.4l3.5-2.4V178.8L830.1,178.8z"/>
	</g>
</g>
</svg>
