<?xml version="1.0" encoding="utf-8"?>
<!-- Generator: Adobe Illustrator 19.0.0, SVG Export Plug-In . SVG Version: 6.00 Build 0)  -->
<svg version="1.1" id="Layer_1" xmlns="http://www.w3.org/2000/svg" xmlns:xlink="http://www.w3.org/1999/xlink" x="0px" y="0px"
	 viewBox="0 0 30.3 29.7" style="enable-background:new 0 0 30.3 29.7;" xml:space="preserve">
<style type="text/css">
	.st0{fill:#85C79F;}
</style>
<g id="Icons_5_">
	<g id="Black_5_" transform="translate(-700.000000, -560.000000)">
		<path id="Github" class="st0" d="M715.1,560c-8.4,0-15.1,6.8-15.1,15.2c0,6.7,4.3,12.4,10.4,14.4c0.8,0.1,1-0.3,1-0.7
			c0-0.4,0-1.3,0-2.6c-4.2,0.9-5.1-2-5.1-2c-0.7-1.8-1.7-2.2-1.7-2.2c-1.4-0.9,0.1-0.9,0.1-0.9c1.5,0.1,2.3,1.6,2.3,1.6
			c1.4,2.3,3.5,1.7,4.4,1.3c0.1-1,0.5-1.7,1-2c-3.4-0.4-6.9-1.7-6.9-7.5c0-1.7,0.6-3,1.6-4.1c-0.2-0.4-0.7-1.9,0.1-4
			c0,0,1.3-0.4,4.2,1.6c1.2-0.3,2.5-0.5,3.8-0.5c1.3,0,2.6,0.2,3.8,0.5c2.9-2,4.2-1.6,4.2-1.6c0.8,2.1,0.3,3.6,0.2,4
			c1,1.1,1.6,2.4,1.6,4.1c0,5.8-3.5,7.1-6.9,7.5c0.5,0.5,1,1.4,1,2.8c0,2,0,3.7,0,4.2c0,0.4,0.3,0.9,1,0.7c6-2,10.3-7.7,10.3-14.4
			C730.3,566.8,723.5,560,715.1,560"/>
	</g>
</g>
</svg>
