<?xml version="1.0" encoding="utf-8"?>
<!-- Generator: Adobe Illustrator 19.0.0, SVG Export Plug-In . SVG Version: 6.00 Build 0)  -->
<svg version="1.1" id="Layer_1" xmlns="http://www.w3.org/2000/svg" xmlns:xlink="http://www.w3.org/1999/xlink" x="0px" y="0px"
	 viewBox="0 0 32.9 27.4" style="enable-background:new 0 0 32.9 27.4;" xml:space="preserve">
<style type="text/css">
	.st0{fill:#85C79F;}
</style>
<g id="Icons_1_">
	<g id="Black_1_" transform="translate(-300.000000, -164.000000)">
		<path id="Twitter" class="st0" d="M332.9,167.2c-1.2,0.6-2.5,0.9-3.9,1.1c1.4-0.9,2.5-2.2,3-3.8c-1.3,0.8-2.7,1.4-4.3,1.7
			c-1.2-1.3-3-2.2-4.9-2.2c-3.7,0-6.7,3.1-6.7,6.9c0,0.5,0.1,1.1,0.2,1.6c-5.6-0.3-10.6-3-13.9-7.2c-0.6,1-0.9,2.2-0.9,3.5
			c0,2.4,1.2,4.5,3,5.8c-1.1,0-2.1-0.3-3.1-0.9v0.1c0,3.4,2.3,6.2,5.4,6.8c-0.6,0.2-1.2,0.2-1.8,0.2c-0.4,0-0.9,0-1.3-0.1
			c0.9,2.7,3.4,4.8,6.3,4.8c-2.3,1.9-5.2,3-8.4,3c-0.5,0-1.1,0-1.6-0.1c3,2,6.5,3.1,10.4,3.1c12.4,0,19.2-10.5,19.2-19.7
			c0-0.3,0-0.6,0-0.9C330.9,169.9,332,168.6,332.9,167.2"/>
	</g>
</g>
</svg>
